<svg version="1.0" xmlns="http://www.w3.org/2000/svg" preserveAspectRatio="xMidYMid meet" viewBox="80.12 759.2 1819.9 467.82">

<g transform="translate(0.000000,2000.000000) scale(0.100000,-0.100000)" fill="#000000" stroke="none">
<path d="M15774 12390 c-106 -42 -183 -137 -204 -248 -28 -155 56 -309 198 -362 79 -30 195 -25 267 12 121 63 183 176 173 317 -9 119 -78 220 -185 272 -67 32 -180 36 -249 9z"/>
<path d="M1775 12389 c-163 -24 -335 -91 -476 -185 -287 -193 -478 -528 -496 -869 -6 -114 4 -305 15 -305 4 0 18 21 32 48 38 72 183 213 258 250 168 82 332 58 444 -67 69 -77 92 -143 92 -266 -1 -158 -38 -249 -222 -545 -220 -352 -330 -616 -393 -945 -21 -106 -18 -398 4 -505 116 -549 501 -962 1077 -1153 320 -107 433 -117 1288 -117 l682 0 0 38 c0 20 -9 55 -19 77 -59 131 -165 175 -421 175 l-123 0 58 59 c130 133 194 292 195 482 0 333 -225 634 -535 714 -84 22 -230 37 -295 31 l-55 -6 71 25 c241 81 482 37 680 -125 110 -90 215 -250 244 -371 7 -27 15 -49 19 -49 4 0 42 44 84 98 43 53 95 117 117 142 l39 45 125 -64 c69 -35 141 -77 160 -93 42 -35 66 -100 66 -183 0 -221 242 -254 305 -43 22 76 20 236 -5 326 -30 107 -65 169 -189 337 -179 243 -240 390 -247 598 -2 66 1 105 6 102 6 -4 10 -18 10 -33 0 -47 56 -188 104 -267 26 -41 51 -75 56 -75 24 0 90 227 120 410 42 263 86 433 141 542 37 73 37 79 -3 67 -114 -32 -288 18 -409 117 -67 55 -74 71 -17 39 118 -65 284 -90 418 -61 150 32 356 153 496 291 120 118 174 237 174 385 l0 77 -82 38 c-281 128 -519 184 -730 172 -111 -7 -192 -26 -297 -70 l-75 -30 -15 24 c-34 55 -130 137 -195 169 -68 32 -219 70 -231 58 -13 -13 -25 -85 -25 -153 0 -125 42 -251 110 -328 16 -19 30 -40 30 -46 0 -6 -13 -37 -29 -69 -16 -31 -48 -111 -71 -177 -76 -214 -153 -347 -274 -473 -111 -116 -176 -161 -536 -372 -258 -151 -393 -251 -540 -400 -122 -123 -206 -242 -285 -405 -123 -252 -161 -429 -152 -694 4 -91 9 -179 12 -196 6 -29 5 -28 -39 19 -165 180 -191 489 -69 816 77 207 176 374 403 680 228 308 333 486 414 703 159 425 129 852 -81 1185 -56 88 -205 230 -297 281 -188 106 -414 150 -621 120z m3032 -854 c40 -11 73 -62 73 -111 0 -36 -6 -51 -32 -79 -41 -45 -90 -55 -142 -30 -96 46 -84 195 17 224 32 9 41 8 84 -4z"/>
<path d="M11020 10615 l0 -1665 253 2 252 3 5 528 5 528 355 -413 c195 -227 401 -465 458 -530 l103 -118 339 0 c187 0 340 3 340 6 0 5 -376 413 -928 1008 -111 120 -202 222 -200 227 2 4 251 276 553 605 303 329 556 606 563 616 13 17 -1 18 -340 18 l-353 -1 -445 -538 -445 -538 -5 961 -5 961 -252 3 -253 2 0 -1665z"/>
<path d="M13325 12268 c-3 -7 -4 -755 -3 -1663 l3 -1650 253 -3 252 -2 0 530 c0 291 3 530 8 529 4 0 212 -238 462 -530 l455 -529 337 0 c193 0 338 4 338 9 0 5 -31 42 -68 82 -37 41 -268 290 -512 554 -243 264 -467 505 -497 535 l-53 56 551 599 c303 330 560 610 572 623 l20 22 -355 0 -355 0 -449 -542 -449 -543 -3 968 -2 967 -250 0 c-191 0 -252 -3 -255 -12z"/>
<path d="M9040 11463 c-539 -58 -940 -448 -1034 -1006 -22 -124 -22 -372 -2 -499 87 -539 443 -931 929 -1023 101 -19 331 -20 429 -1 223 43 427 152 573 308 l75 80 0 -186 0 -186 255 0 255 0 0 1240 0 1240 -255 0 -255 0 0 -182 0 -181 -57 63 c-117 130 -311 247 -483 294 -130 35 -313 52 -430 39z m391 -462 c262 -66 463 -265 538 -531 70 -250 38 -544 -82 -745 -58 -99 -194 -232 -282 -277 -245 -126 -516 -115 -739 32 -182 120 -299 307 -340 545 -61 351 62 695 309 865 168 116 403 159 596 111z"/>
<path d="M17485 11459 c-442 -56 -805 -358 -949 -792 -94 -280 -92 -658 4 -941 131 -389 415 -667 790 -772 81 -22 121 -27 265 -31 143 -4 185 -2 266 15 217 45 409 154 566 321 l62 66 1 -220 c0 -328 -20 -456 -92 -600 -39 -77 -162 -200 -243 -242 -225 -118 -575 -105 -803 28 -92 54 -186 154 -228 243 l-36 76 -250 0 -250 0 7 -57 c22 -174 120 -360 261 -493 228 -215 535 -320 934 -321 249 0 418 34 595 121 336 163 549 465 605 855 6 44 10 570 10 1393 l0 1322 -255 0 -255 0 0 -181 0 -181 -71 76 c-167 179 -406 290 -677 316 -121 11 -158 11 -257 -1z m428 -459 c317 -80 533 -350 567 -709 28 -299 -59 -554 -253 -737 -207 -197 -509 -248 -777 -131 -273 119 -440 385 -457 728 -22 426 196 751 567 848 102 27 249 27 353 1z"/>
<path d="M6080 11220 l0 -210 560 0 c308 0 560 -3 560 -6 0 -3 -252 -372 -560 -820 l-560 -814 2 -208 3 -207 855 0 855 0 3 208 2 207 -560 0 c-308 0 -560 2 -560 5 0 3 252 373 560 823 l560 817 -2 205 -3 205 -857 3 -858 2 0 -210z"/>
<path d="M15630 10190 l0 -1240 255 0 255 0 0 1240 0 1240 -255 0 -255 0 0 -1240z"/>
</g>
</svg>