<svg version="1.0" xmlns="http://www.w3.org/2000/svg" preserveAspectRatio="xMidYMid meet" viewBox="80.12 760.17 464.9 466.85">
  <g transform="translate(0.000000,2000.000000) scale(0.100000,-0.100000)" fill="#000000" stroke="none">
    <path d="M1775 12389 c-163 -24 -335 -91 -476 -185 -287 -193 -478 -528 -496 -869 -6 -114 4 -305 15 -305 4 0 18 21 32 48 38 72 183 213 258 250 168 82 332 58 444 -67 69 -77 92 -143 92 -266 -1 -158 -38 -249 -222 -545 -220 -352 -330 -616 -393 -945 -21 -106 -18 -398 4 -505 116 -549 501 -962 1077 -1153 320 -107 433 -117 1288 -117 l682 0 0 38 c0 20 -9 55 -19 77 -59 131 -165 175 -421 175 l-123 0 58 59 c130 133 194 292 195 482 0 333 -225 634 -535 714 -84 22 -230 37 -295 31 l-55 -6 71 25 c241 81 482 37 680 -125 110 -90 215 -250 244 -371 7 -27 15 -49 19 -49 4 0 42 44 84 98 43 53 95 117 117 142 l39 45 125 -64 c69 -35 141 -77 160 -93 42 -35 66 -100 66 -183 0 -221 242 -254 305 -43 22 76 20 236 -5 326 -30 107 -65 169 -189 337 -179 243 -240 390 -247 598 -2 66 1 105 6 102 6 -4 10 -18 10 -33 0 -47 56 -188 104 -267 26 -41 51 -75 56 -75 24 0 90 227 120 410 42 263 86 433 141 542 37 73 37 79 -3 67 -114 -32 -288 18 -409 117 -67 55 -74 71 -17 39 118 -65 284 -90 418 -61 150 32 356 153 496 291 120 118 174 237 174 385 l0 77 -82 38 c-281 128 -519 184 -730 172 -111 -7 -192 -26 -297 -70 l-75 -30 -15 24 c-34 55 -130 137 -195 169 -68 32 -219 70 -231 58 -13 -13 -25 -85 -25 -153 0 -125 42 -251 110 -328 16 -19 30 -40 30 -46 0 -6 -13 -37 -29 -69 -16 -31 -48 -111 -71 -177 -76 -214 -153 -347 -274 -473 -111 -116 -176 -161 -536 -372 -258 -151 -393 -251 -540 -400 -122 -123 -206 -242 -285 -405 -123 -252 -161 -429 -152 -694 4 -91 9 -179 12 -196 6 -29 5 -28 -39 19 -165 180 -191 489 -69 816 77 207 176 374 403 680 228 308 333 486 414 703 159 425 129 852 -81 1185 -56 88 -205 230 -297 281 -188 106 -414 150 -621 120z m3032 -854 c40 -11 73 -62 73 -111 0 -36 -6 -51 -32 -79 -41 -45 -90 -55 -142 -30 -96 46 -84 195 17 224 32 9 41 8 84 -4z"/>
  </g>
</svg>